# xmcd
#
# Track frame offsets: 
#        150
#        20875
#        47942
#        75832
#        93855
#        121210
#        146145
#        171115
#        195335
#        213915
#
# Disc length: 3116 seconds
#
# Revision: 0
# Processed by: cddbd v1.5.2PL0 Copyright (c) Steve Scherf et al.
# Submitted via: ExactAudioCopy v1.0b3
#
DISCID=7f0c2a0a
DTITLE=Che Linh, Huong Lan - Nha Anh Nha Em
DYEAR=1993
DGENRE=
TTITLE0=Nguoi tinh
TTITLE1=Huong Lan - Bai tho cuoi cung
TTITLE2=Che Linh - Doi thong hai mo
TTITLE3=Huong Lan - Hai canh phuong buon
TTITLE4=Che Linh - Dam cuoi dau Xuan
TTITLE5=Dau chan ky niem
TTITLE6=Huong Lan - Bien sau
TTITLE7=Che Linh - Dinh menh buon
TTITLE8=Huong Lan - Mua rung
TTITLE9=Che Linh - Nha anh nha em
EXTD=
EXTT0=
EXTT1=
EXTT2=
EXTT3=
EXTT4=
EXTT5=
EXTT6=
EXTT7=
EXTT8=
EXTT9=
PLAYORDER=
